<svg xmlns="http://www.w3.org/2000/svg" width="44.188" height="58.163" viewBox="0 0 44.188 58.163">
  <path id="Icon_awesome-allergies" data-name="Icon awesome-allergies" d="M41.033,12.721a3.431,3.431,0,0,0-3.156,3.634v8.177a.858.858,0,0,1-.789.909H35.509a.858.858,0,0,1-.789-.909V7.269a3.431,3.431,0,0,0-3.156-3.634,3.431,3.431,0,0,0-3.156,3.634V24.532a.858.858,0,0,1-.789.909H26.04a.858.858,0,0,1-.789-.909V3.634A3.431,3.431,0,0,0,22.094,0a3.431,3.431,0,0,0-3.156,3.634v20.9a.858.858,0,0,1-.789.909H16.571a.858.858,0,0,1-.789-.909V7.269a3.431,3.431,0,0,0-3.156-3.634A3.431,3.431,0,0,0,9.469,7.269V34.641L7.141,30.95a3.62,3.62,0,0,0-5.514-1A5,5,0,0,0,.759,36.3L13.148,55.914a4.579,4.579,0,0,0,3.827,2.249H36.466a4.92,4.92,0,0,0,4.606-4.2l2.614-12.8a26.169,26.169,0,0,0,.5-4.8v-20A3.431,3.431,0,0,0,41.033,12.721ZM17.36,47.248a1.835,1.835,0,0,1,0-3.634,1.835,1.835,0,0,1,0,3.634Zm0-10.9a1.835,1.835,0,0,1,0-3.634,1.835,1.835,0,0,1,0,3.634Zm6.313,14.538a1.835,1.835,0,0,1,0-3.634,1.835,1.835,0,0,1,0,3.634Zm0-10.9a1.835,1.835,0,0,1,0-3.634,1.835,1.835,0,0,1,0,3.634Zm6.313,3.634A1.835,1.835,0,1,1,31.564,41.8,1.715,1.715,0,0,1,29.985,43.613Zm3.156,7.269a1.835,1.835,0,1,1,1.578-1.817A1.715,1.715,0,0,1,33.142,50.882ZM36.3,36.344a1.835,1.835,0,1,1,1.578-1.817A1.715,1.715,0,0,1,36.3,36.344Z" transform="translate(-0.002)" fill="#8eccad"/>
</svg>
