<svg xmlns="http://www.w3.org/2000/svg" width="21.5" height="21.5" viewBox="173.25 189.25 21.5 21.5"><g data-name="category-2"><path d="M191 198.75h-2c-2.418 0-3.75-1.332-3.75-3.75v-2c0-2.418 1.332-3.75 3.75-3.75h2c2.418 0 3.75 1.332 3.75 3.75v2c0 2.418-1.332 3.75-3.75 3.75Zm-2-8c-1.577 0-2.25.673-2.25 2.25v2c0 1.577.673 2.25 2.25 2.25h2c1.577 0 2.25-.673 2.25-2.25v-2c0-1.577-.673-2.25-2.25-2.25h-2ZM179 210.75h-2c-2.418 0-3.75-1.332-3.75-3.75v-2c0-2.418 1.332-3.75 3.75-3.75h2c2.418 0 3.75 1.332 3.75 3.75v2c0 2.418-1.332 3.75-3.75 3.75Zm-2-8c-1.577 0-2.25.673-2.25 2.25v2c0 1.577.673 2.25 2.25 2.25h2c1.577 0 2.25-.673 2.25-2.25v-2c0-1.577-.673-2.25-2.25-2.25h-2ZM178 189.25c2.62 0 4.75 2.13 4.75 4.75s-2.13 4.75-4.75 4.75-4.75-2.13-4.75-4.75 2.13-4.75 4.75-4.75Zm0 8a3.254 3.254 0 0 0 3.25-3.25 3.254 3.254 0 0 0-3.25-3.25 3.254 3.254 0 0 0-3.25 3.25 3.254 3.254 0 0 0 3.25 3.25ZM190 201.25c2.62 0 4.75 2.13 4.75 4.75s-2.13 4.75-4.75 4.75-4.75-2.13-4.75-4.75 2.13-4.75 4.75-4.75Zm0 8a3.254 3.254 0 0 0 3.25-3.25 3.254 3.254 0 0 0-3.25-3.25 3.254 3.254 0 0 0-3.25 3.25 3.254 3.254 0 0 0 3.25 3.25Z" fill="#fff" fill-rule="evenodd" data-name="Vector"/></g></svg>