<svg id="Group_1291" data-name="Group 1291" xmlns="http://www.w3.org/2000/svg" xmlns:xlink="http://www.w3.org/1999/xlink" width="48" height="48" viewBox="0 0 48 48">
  <defs>
    <clipPath id="clip-path">
      <rect id="Rectangle_1029" data-name="Rectangle 1029" width="48" height="48" fill="none"/>
    </clipPath>
    <clipPath id="clip-path-2">
      <rect id="Rectangle_1030" data-name="Rectangle 1030" width="41.447" height="10.023" fill="none"/>
    </clipPath>
  </defs>
  <g id="Group_1288" data-name="Group 1288">
    <g id="Group_1287" data-name="Group 1287" clip-path="url(#clip-path)">
      <path id="Path_1831" data-name="Path 1831" d="M24,0A24,24,0,1,1,0,24,24,24,0,0,1,24,0" fill="#fff"/>
    </g>
  </g>
  <g id="Group_1290" data-name="Group 1290" transform="translate(3.276 18.982)">
    <g id="Group_1289" data-name="Group 1289" clip-path="url(#clip-path-2)">
      <path id="Path_1832" data-name="Path 1832" d="M26.428,162.649c-.138,0-.29,0-.456-.014a1.794,1.794,0,0,1-.456-.1,1.037,1.037,0,0,1-.387-.249,1.854,1.854,0,0,1-.249-.387,1.6,1.6,0,0,1-.138-.456,2.545,2.545,0,0,1-.041-.456,2.11,2.11,0,0,1,.041-.415,1.931,1.931,0,0,1,.124-.4,1.135,1.135,0,0,1,.221-.346,1.206,1.206,0,0,1,.318-.277.86.86,0,0,1,.359-.124,3.643,3.643,0,0,1,.387-.028h1.175v.581h-.9a2.151,2.151,0,0,0-.276.014.659.659,0,0,0-.276.055.6.6,0,0,0-.346.429c-.014.1-.028.18-.041.277h1.839v.567H25.5a.942.942,0,0,0,.1.387.633.633,0,0,0,.194.235.671.671,0,0,0,.29.111,1.825,1.825,0,0,0,.387.028h.871v.581h-.912Z" transform="translate(-24.562 -156.345)" fill="#818386"/>
      <path id="Path_1833" data-name="Path 1833" d="M49.772,161.682a.659.659,0,0,1-.166.3.745.745,0,0,1-.221.194,1.845,1.845,0,0,1-.249.1,1.874,1.874,0,0,1-.276.028H46.924v-.581H48.4a1.265,1.265,0,0,0,.221-.014.555.555,0,0,0,.207-.041.392.392,0,0,0,.152-.111.418.418,0,0,0,.069-.221.446.446,0,0,0-.111-.29.38.38,0,0,0-.207-.111,1.422,1.422,0,0,0-.235-.014h-.594a2.24,2.24,0,0,1-.3-.014,1.086,1.086,0,0,1-.3-.069.743.743,0,0,1-.221-.138.578.578,0,0,1-.152-.207,1.331,1.331,0,0,1-.1-.249.808.808,0,0,1-.028-.263,1.11,1.11,0,0,1,.083-.415.962.962,0,0,1,.235-.346.825.825,0,0,1,.207-.124,1.51,1.51,0,0,1,.235-.069c.083-.014.166-.014.249-.028h1.866v.581H47.961a1.067,1.067,0,0,0-.207.028.29.29,0,0,0-.152.111.352.352,0,0,0-.055.235.36.36,0,0,0,.055.207.351.351,0,0,0,.138.111.442.442,0,0,0,.194.041c.069,0,.138.014.207.014h.525a3.369,3.369,0,0,1,.373.014.839.839,0,0,1,.359.111.578.578,0,0,1,.207.152,1.8,1.8,0,0,1,.138.207,1.591,1.591,0,0,1,.083.235,1.524,1.524,0,0,1,.028.249c-.028.166-.055.277-.083.387" transform="translate(-43.606 -156)" fill="#818386"/>
      <path id="Path_1834" data-name="Path 1834" d="M72.3,159.3h.691v3.263H72.3Zm1.521,1.618,1.3,1.645h-.912l-1.189-1.645,1.244-1.618h.912Z" transform="translate(-65.581 -156.259)" fill="#818386"/>
      <path id="Path_1835" data-name="Path 1835" d="M95.9,162.563l-.318-.76H94.334l-.318.76H93.2l1.355-3.263h.8l1.355,3.263Zm-.926-2.475-.47,1.147h.926Z" transform="translate(-83.592 -156.259)" fill="#818386"/>
      <path id="Path_1836" data-name="Path 1836" d="M137.335,162.476h-.194a.673.673,0,0,1-.166-.014.694.694,0,0,1-.166-.028.894.894,0,0,1-.18-.055.936.936,0,0,1-.4-.249,1.105,1.105,0,0,1-.249-.373,1.646,1.646,0,0,1-.138-.442,2.584,2.584,0,0,1-.041-.47,2.321,2.321,0,0,1,.1-.691,1.277,1.277,0,0,1,.346-.608,1.509,1.509,0,0,1,.235-.18.938.938,0,0,1,.276-.1,1.983,1.983,0,0,1,.3-.055,2.042,2.042,0,0,1,.29-.014h1.106v.581h-1.023a1.161,1.161,0,0,0-.429.069.622.622,0,0,0-.263.194.826.826,0,0,0-.138.318,2.11,2.11,0,0,0-.041.415.979.979,0,0,0,.014.194,1.067,1.067,0,0,0,.028.207l.041.207a.694.694,0,0,0,.069.18.406.406,0,0,0,.138.166.745.745,0,0,0,.18.1.555.555,0,0,0,.207.041,1.046,1.046,0,0,0,.207.014h1v.581Z" transform="translate(-120.302 -156.173)" fill="#fb9335"/>
      <path id="Path_1837" data-name="Path 1837" d="M158.665,168.078H158.4a.868.868,0,0,1-.263-.041.566.566,0,0,1-.346-.249.629.629,0,0,1-.111-.415.89.89,0,0,1,.069-.332.7.7,0,0,1,.207-.276.511.511,0,0,1,.152-.069c.055-.014.124-.028.18-.041a.914.914,0,0,1,.194-.014h.968V166.6a1.067,1.067,0,0,0-.028-.207.373.373,0,0,0-.1-.111.674.674,0,0,0-.152-.055,1.046,1.046,0,0,0-.207-.014h-1.106V165.7h1.383a1.076,1.076,0,0,1,.512.124.77.77,0,0,1,.318.429.7.7,0,0,1,.041.235c0,.083.014.166.014.249v1.341Zm.788-.94h-.871a.3.3,0,0,0-.18.055.23.23,0,0,0-.041.29c.028.028.055.055.083.055a.325.325,0,0,0,.111.028h.885Z" transform="translate(-139.158 -161.774)" fill="#fb9335"/>
      <path id="Path_1838" data-name="Path 1838" d="M180.958,166.678v-.235a.426.426,0,0,0-.041-.18.244.244,0,0,0-.124-.111.783.783,0,0,0-.249-.041h-.194v1.866h-.65V165.6h.968a3.643,3.643,0,0,1,.387.028.581.581,0,0,1,.346.166.541.541,0,0,1,.111.138.778.778,0,0,1,.055.166.7.7,0,0,1,.028.18v.415h-.636Z" transform="translate(-158.133 -161.688)" fill="#fb9335"/>
      <path id="Path_1839" data-name="Path 1839" d="M196.23,168.164a2.251,2.251,0,0,1-.429-.041.937.937,0,0,1-.373-.18.88.88,0,0,1-.332-.442,1.5,1.5,0,0,1-.1-.553,1.7,1.7,0,0,1,.028-.277,1.023,1.023,0,0,1,.235-.512.93.93,0,0,1,.207-.194.761.761,0,0,1,.346-.138,1.7,1.7,0,0,1,.373-.028h.912v.512h-.871a.6.6,0,0,0-.373.083.439.439,0,0,0-.138.346H197.1v.512h-1.382a.58.58,0,0,0,.055.221.351.351,0,0,0,.3.194,1.189,1.189,0,0,0,.221.014h.8v.512Z" transform="translate(-171.318 -161.86)" fill="#fb9335"/>
      <path id="Path_1840" data-name="Path 1840" d="M215.662,168.078v-1.535a.319.319,0,0,0-.083-.263.347.347,0,0,0-.263-.069h-.567v1.866h-.65V165.7h1.3a.9.9,0,0,1,.691.221,1.009,1.009,0,0,1,.221.691v1.465Z" transform="translate(-187.777 -161.774)" fill="#fb9335"/>
      <path id="Path_1841" data-name="Path 1841" d="M234.63,168.164a2.251,2.251,0,0,1-.429-.041.937.937,0,0,1-.373-.18.88.88,0,0,1-.332-.442,1.5,1.5,0,0,1-.1-.553,1.7,1.7,0,0,1,.028-.277,1.023,1.023,0,0,1,.235-.512.929.929,0,0,1,.207-.194.761.761,0,0,1,.346-.138,1.7,1.7,0,0,1,.373-.028h.912v.512h-.871a.6.6,0,0,0-.373.083.439.439,0,0,0-.138.346H235.5v.512h-1.382a.579.579,0,0,0,.055.221.351.351,0,0,0,.3.194,1.189,1.189,0,0,0,.221.014h.8v.512Z" transform="translate(-204.409 -161.86)" fill="#fb9335"/>
      <path id="Path_1842" data-name="Path 1842" d="M251.917,162.563a1.2,1.2,0,0,1-.442-.083.532.532,0,0,1-.29-.332,1.447,1.447,0,0,1-.055-.235c0-.083-.014-.166-.014-.235V160.7H250.7v-.512h.415V159.3h.65v.885h.608v.512h-.608v1.064a.278.278,0,0,0,.055.18.215.215,0,0,0,.111.083.5.5,0,0,0,.152.028h.29v.512Z" transform="translate(-219.318 -156.259)" fill="#fb9335"/>
      <path id="Path_1843" data-name="Path 1843" d="M202.2,195.038v-1.452h.5a.511.511,0,0,1,.373.124.439.439,0,0,1,.138.346.429.429,0,0,1-.138.332.607.607,0,0,1-.373.124h-.263v.539H202.2Zm.235-.747h.263a.259.259,0,0,0,.194-.069.268.268,0,0,0,0-.359.259.259,0,0,0-.194-.069h-.263Z" transform="translate(-177.523 -185.804)" fill="#818386"/>
      <path id="Path_1844" data-name="Path 1844" d="M213.615,197.147a.454.454,0,0,1-.235-.055.3.3,0,0,1-.138-.124.368.368,0,0,1-.041-.166.278.278,0,0,1,.055-.18.392.392,0,0,1,.152-.111.444.444,0,0,1,.235-.028.673.673,0,0,1,.166.014l.166.042v.138c-.041-.014-.1-.028-.138-.041a.47.47,0,0,0-.138-.014.368.368,0,0,0-.166.041.165.165,0,0,0-.069.124.126.126,0,0,0,.055.111.182.182,0,0,0,.166.041.256.256,0,0,0,.235-.124.149.149,0,0,0,.028-.111H214a.505.505,0,0,1-.041.207.251.251,0,0,1-.138.152.237.237,0,0,1-.207.083m.373-.028-.028-.263v-.442a.278.278,0,0,0-.055-.18.19.19,0,0,0-.166-.055.27.27,0,0,0-.111.014.289.289,0,0,0-.083.055.2.2,0,0,0-.028.1h-.263a.317.317,0,0,1,.055-.194.275.275,0,0,1,.166-.111.8.8,0,0,1,.263-.041.646.646,0,0,1,.235.041.407.407,0,0,1,.166.138.474.474,0,0,1,.055.249v.705Z" transform="translate(-187.002 -187.885)" fill="#818386"/>
      <path id="Path_1845" data-name="Path 1845" d="M224.5,194.3h.719v.166H224.5Zm.512,1.12a.328.328,0,0,1-.166-.042.244.244,0,0,1-.124-.111.288.288,0,0,1-.041-.18V194h.235v1.078c0,.1.041.138.138.138a.175.175,0,0,0,.083-.014c.028-.014.069-.014.1-.028l.041.166-.124.041a.2.2,0,0,1-.138.042" transform="translate(-196.74 -186.161)" fill="#818386"/>
      <path id="Path_1846" data-name="Path 1846" d="M234.252,192.79a.157.157,0,0,1-.111-.041.15.15,0,0,1,0-.207.168.168,0,0,1,.221,0,.15.15,0,0,1,0,.207.157.157,0,0,1-.111.041m-.111.207h.235v1.092h-.235Z" transform="translate(-205.012 -184.869)" fill="#818386"/>
      <path id="Path_1847" data-name="Path 1847" d="M241.6,197.14a.477.477,0,0,1-.249-.069.517.517,0,0,1-.18-.207.754.754,0,0,1-.069-.3.58.58,0,0,1,.069-.3.458.458,0,0,1,.442-.263.406.406,0,0,1,.221.055.479.479,0,0,1,.152.138.485.485,0,0,1,.083.194.67.67,0,0,1,0,.235h-.774v-.138h.594l-.055.028v-.111a.184.184,0,0,0-.041-.111.367.367,0,0,0-.069-.083.205.205,0,0,0-.124-.028.279.279,0,0,0-.152.041.3.3,0,0,0-.1.124.351.351,0,0,0-.028.166v.1a.809.809,0,0,0,.028.18.249.249,0,0,0,.083.124.279.279,0,0,0,.152.041.234.234,0,0,0,.138-.041.145.145,0,0,0,.069-.124h.249a.484.484,0,0,1-.083.194.377.377,0,0,1-.166.124.4.4,0,0,1-.194.041" transform="translate(-211.045 -187.878)" fill="#818386"/>
      <path id="Path_1848" data-name="Path 1848" d="M252.7,197.12v-1.092h.207l.028.221v.871Zm.747,0v-.636a.259.259,0,0,0-.069-.194.255.255,0,0,0-.166-.069.279.279,0,0,0-.152.041.316.316,0,0,0-.1.138.626.626,0,0,0-.041.221h-.083a.955.955,0,0,1,.055-.346.452.452,0,0,1,.152-.207.466.466,0,0,1,.235-.069.358.358,0,0,1,.359.221.783.783,0,0,1,.041.249v.636h-.235Z" transform="translate(-221.041 -187.885)" fill="#818386"/>
      <path id="Path_1849" data-name="Path 1849" d="M264,194.3h.719v.166H264Zm.512,1.12a.328.328,0,0,1-.166-.042.244.244,0,0,1-.124-.111.288.288,0,0,1-.041-.18V194h.235v1.078c0,.1.041.138.138.138a.175.175,0,0,0,.083-.014c.028-.014.069-.014.1-.028l.041.166-.124.041a.2.2,0,0,1-.138.042" transform="translate(-230.779 -186.161)" fill="#818386"/>
      <path id="Path_1850" data-name="Path 1850" d="M269.349,143.88h-4.382v-.553h4.382a1.551,1.551,0,0,0,.512-3.014l-.194-.069v-.207a.175.175,0,0,1,.014-.083v-.028a2.148,2.148,0,0,0-2.143-2.157,2.185,2.185,0,0,0-1.894,1.106l-.1.166-.194-.028a1.7,1.7,0,0,0-.276-.028,1.31,1.31,0,0,0-1.382.871H263.1a2.085,2.085,0,0,1,1.977-1.41.788.788,0,0,1,.18.014,2.7,2.7,0,0,1,4.963,1.41,2.1,2.1,0,0,1-.871,4.009" transform="translate(-230.003 -137.244)" fill="#0099db"/>
      <path id="Path_1851" data-name="Path 1851" d="M295.848,169.7l-1.548.332.747.622Z" transform="translate(-256.89 -165.221)" fill="#0099db"/>
      <path id="Path_1852" data-name="Path 1852" d="M294.383,146.1a4.266,4.266,0,0,1,1.327,2.71c.014.028,0,.069-.028.069h-.014a11.2,11.2,0,0,1-1.355.277s-.014,0-.014-.028a9.552,9.552,0,0,0,.083-3.028" transform="translate(-256.89 -144.884)" fill="#0099db"/>
    </g>
  </g>
</svg>
