<svg xmlns="http://www.w3.org/2000/svg" width="32.288" height="28.321"><g data-name="Group 151" clip-path="url(&quot;#a&quot;)"><path d="M11.756 27.993h-7.73A3.716 3.716 0 0 1 .316 24.28V4.027A3.716 3.716 0 0 1 4.027.315H24.28a3.717 3.717 0 0 1 3.712 3.712v4.268h-.943V4.027a2.772 2.772 0 0 0-2.77-2.769H4.028a2.772 2.772 0 0 0-2.769 2.77V24.28a2.772 2.772 0 0 0 2.769 2.77h7.73v.943Z" fill="#fff" fill-rule="evenodd" data-name="Path 4077"/><path d="M12.07 28.308H4.028A4.032 4.032 0 0 1 0 24.28V4.027A4.032 4.032 0 0 1 4.027 0H24.28a4.032 4.032 0 0 1 4.027 4.027V8.61h-1.573V4.027a2.457 2.457 0 0 0-2.454-2.454H4.027a2.457 2.457 0 0 0-2.454 2.454V24.28a2.457 2.457 0 0 0 2.454 2.455h8.044v1.573ZM4.028.629A3.401 3.401 0 0 0 .629 4.027V24.28a3.401 3.401 0 0 0 3.398 3.398h7.415v-.314H4.027A3.087 3.087 0 0 1 .944 24.28V4.027c0-1.7 1.383-3.083 3.083-3.083H24.28c1.7 0 3.083 1.383 3.083 3.083v3.954h.315V4.027A3.402 3.402 0 0 0 24.28.63H4.027Z" fill="#fff" fill-rule="evenodd" data-name="Path 4078"/><path d="M17.205 24.952V12.366c-.073.022-.126.034-.174.054-3.592 1.459-7.182 2.92-10.776 4.372-.206.083-.246.192-.245.393.006 2.48.004 4.96.004 7.44v.327l.023.843v1.332H17.21v-1.332l-.005-.843Zm12.09-12.118c0-.986-.009-1.927.005-2.867.004-.248-.058-.368-.304-.467-3.08-1.238-6.151-2.492-9.226-3.742l-1.67-.68c-.006.12-.014.203-.014.284 0 .886.007 1.772-.005 2.657-.002.201.066.29.248.364 2.576 1.041 5.15 2.09 7.723 3.137l3.243 1.314m0 3.144c0-.723.007-1.393-.01-2.063-.001-.084-.11-.206-.199-.242-3.57-1.46-7.144-2.912-10.719-4.364-.08-.033-.165-.056-.28-.096 0 .68.007 1.312-.005 1.945-.005.197.056.293.244.368 2.767 1.116 5.53 2.241 8.294 3.364l2.675 1.088M17.221 9.222c-.102.03-.173.046-.238.073-3.591 1.457-7.18 2.918-10.773 4.372-.158.064-.202.151-.2.312.008.587.003 1.175.004 1.762 0 .068.014.136.023.224.104-.04.182-.069.258-.1l7.003-2.844c1.223-.498 2.448-.992 3.668-1.495.098-.04.242-.139.244-.214.02-.687.011-1.374.011-2.09m3.585 4.226c-.013.063-.02.08-.02.098-.002 2.228 0 4.456-.006 6.684 0 .204.097.248.275.258.669-.742 1.525-2.118 1.525-2.118.25-.368.453-.65.712-.63.26.02.436.522.48.755.197 1.032 1.044 2.446 1.225 3.48.048.27.197.315.41.346.008-.043.018-.07.018-.097.002-2.218.003-4.436-.005-6.655-.001-.087-.097-.213-.18-.251a163.534 163.534 0 0 0-2.791-1.207c-.541-.22-1.083-.437-1.643-.663m-.87.35c0-.229.005-.42-.004-.61-.002-.045-.043-.112-.083-.128-.572-.238-1.147-.47-1.748-.714V24.93l-.015.887c0 .403 0 .784.002 1.166 0 .045.008.089.014.147h11.176v-.6l.017-.351v-.957c0-.243-.004-.485 0-.728.007-.3.17-.483.426-.483.26 0 .418.17.42.482.003 1.212.001 1.176.002 2.388v.267c.413 0 .81-.002 1.205.001.112.001.228 0 .332.03.2.06.305.209.292.422-.012.212-.13.345-.34.383-.1.018-.205.018-.306.018-9.118.001-18.236 0-27.353.004-.255 0-.476-.041-.64-.25v-.336c.142-.215.342-.285.597-.276.398.015.798.004 1.237.004V9.6c0-.525.02-.552.493-.743l6.539-2.657c.026-.01.051-.023.077-.033.32-.124.567-.05.66.2.092.246-.02.454-.33.581-.861.354-1.722.704-2.582 1.054-1.266.515-2.533 1.03-3.8 1.542-.129.052-.216.098-.214.27.008.96.004 1.92.005 2.881 0 .035.009.07.017.134.677-.273 1.34-.54 2-.808 2.981-1.212 5.961-2.425 8.944-3.632.181-.073.254-.158.251-.362-.01-.886-.004-1.771-.004-2.657v-.292c-.48.194-.926.372-1.37.552-.423.17-.843.348-1.265.515-.276.11-.52.027-.616-.198-.101-.24.013-.47.306-.59 1.042-.426 2.08-.86 3.132-1.26.174-.067.425-.034.606.039 2.933 1.179 5.86 2.372 8.788 3.562.98.4 1.959.806 2.945 1.196.284.112.398.285.397.59-.006 3.87-.004 6.846-.003 10.715 0 .216-.016.438-.254.503-.131.037-.339.02-.428-.064-.103-.097-.158-.293-.159-.445-.012-1.296-.014-1.7 0-2.996.001-.236-.077-.336-.291-.421-1.355-.54-1.101-.384-2.453-.934-.075-.03-.154-.05-.268-.087v6.989c0 .12-.002.244-.032.359-.064.252-.294.378-.539.288-.4-.15-.806-.296-1.186-.487-.131-.067-.25-.253-.284-.405-.135-.58-.233-1.167-.346-1.75-.013-.063-.646-1.89-.683-2.019-.175.468-1.063 1.88-1.362 2.396-.162.434-.455.457-.881.285-.215-.087-.426-.186-.647-.26-.29-.098-.398-.283-.396-.59.009-1.836-.002-3.673.01-5.51l-.007-1.252Z" fill="#fff" fill-rule="evenodd" data-name="Path 4079"/><path d="M3.973 28.32c-.278 0-.63-.041-.888-.37l-.066-.086v-.538l.052-.08c.192-.29.484-.436.87-.416.273.01.545.009.831.005h.08V9.6c0-.65.097-.794.69-1.035l6.621-2.692c.329-.127.564-.08.704-.016a.69.69 0 0 1 .364.4c.12.324.051.753-.506.982-.86.354-1.722.704-2.583 1.054l-.421.172c-1.126.458-2.251.916-3.379 1.37l-.017.007c.006.683.005 1.353.005 2.024v.504l3.868-1.569c2.22-.902 4.439-1.805 6.66-2.704.05-.02.064-.031.064-.031-.017-.687-.016-1.34-.015-1.992v-.53l-1.439.583c-.254.105-.509.21-.765.311-.427.17-.857.016-1.02-.367a.713.713 0 0 1-.01-.553c.082-.2.25-.355.485-.452l.608-.249c.841-.345 1.683-.69 2.532-1.014.277-.106.613-.05.835.041 2.455.987 4.905 1.983 7.355 2.98l2.321.945c.684.28 1.368.56 2.056.832.402.159.597.448.595.884-.005 3.698-.003 6.58-.002 10.206v.509c0 .184 0 .673-.485.806-.181.048-.522.052-.726-.138-.189-.178-.258-.473-.26-.673a119.264 119.264 0 0 1 0-3.001c0-.06-.007-.081-.008-.085 0 .001-.009-.011-.083-.04-.645-.257-.921-.355-1.183-.447-.266-.095-.517-.183-1.107-.422l-.002 6.544c0 .146-.003.29-.04.437a.728.728 0 0 1-.366.475.721.721 0 0 1-.588.03l-.09-.034c-.373-.139-.76-.282-1.128-.468-.238-.12-.4-.402-.45-.614a28.139 28.139 0 0 1-.251-1.25l-.097-.511c-.017-.055-.194-.572-.36-1.06l-.072-.207a47.24 47.24 0 0 1-.72 1.22c-.127.21-.238.394-.312.522a.808.808 0 0 1-.426.478c-.3.133-.626.03-.844-.06l-.22-.091c-.136-.058-.271-.115-.41-.162-.407-.137-.612-.436-.61-.889.003-.838.003-1.676.003-2.513 0-1 0-1.999.008-2.998l-.009-1.25v-.183c.001-.109.002-.21 0-.309-.398-.165-.797-.327-1.207-.492l-.013 14.001h10.561l.017-1.809c0-.172-.001-.344.002-.518.01-.466.313-.792.74-.792.436 0 .73.32.733.796l.002 1.535v.807h.023c.295-.002.583-.001.871 0 .15.002.282.003.42.044.34.102.537.386.515.743a.694.694 0 0 1-.597.673c-.12.02-.243.023-.363.023h-6.079c-7.09 0-14.183 0-21.274.004m-.325-.695c.062.043.153.066.325.066 7.091-.003 14.183-.003 21.274-.004h6.08c.083 0 .168.001.25-.013.066-.013.078-.025.081-.093.005-.07-.01-.084-.069-.102-.05-.015-.131-.015-.21-.016a86.294 86.294 0 0 0-.898-.001h-.653l-.002-2.969c-.001-.169-.049-.169-.105-.169-.037 0-.107 0-.11.176-.003.167-.002.335-.002.504v1.174l-.017.367v.898H17.82l-.03-.28a1.552 1.552 0 0 1-.016-.178v-1.17l.013-.89V11.877l.838.34c.458.186.903.367 1.347.551.149.063.268.236.276.405.007.142.006.286.005.445v.178l.008 1.251c-.007 1.003-.007 2-.008 2.998 0 .838 0 1.677-.003 2.516-.001.207.054.247.182.29.154.052.304.115.454.179l.21.087c.239.096.328.08.355.068.037-.017.079-.079.114-.17.098-.18.21-.366.34-.58.358-.595.9-1.493 1.021-1.817l.153-.408a8.016 8.016 0 0 0-.239.337c-.028.045-.87 1.397-1.551 2.15l-.1.112-.15-.008c-.5-.026-.573-.37-.572-.573.004-1.637.005-3.275.005-4.913l.017-1.886.085-.355.35.081 1.645.664c.39.157 2.406 1.03 2.802 1.212.174.08.363.306.364.536.008 1.972.008 3.945.007 5.918l-.019.869-.066.28-.295-.002c-.19-.029-.582-.088-.673-.604-.082-.47-.325-1.055-.568-1.628.078.23.087.26.091.285l.098.519c.076.408.152.817.246 1.222.02.08.086.175.12.194.337.17.707.308 1.065.44l.09.033c.021.01.053.016.077.004.02-.011.037-.038.047-.074.02-.076.021-.172.021-.281l.001-7.422.514.166c.07.021.13.04.185.062.699.284.964.378 1.247.478.267.094.55.195 1.206.456.34.135.492.356.488.716a118.355 118.355 0 0 0 0 2.99.41.41 0 0 0 .062.219c.002-.005.082.003.13-.01.01-.01.02-.06.02-.2v-.508c0-3.626-.002-6.51.003-10.207 0-.179-.036-.234-.197-.298-.69-.272-1.377-.553-2.063-.835l-2.32-.945c-2.45-.996-4.899-1.992-7.352-2.979-.142-.057-.307-.063-.377-.036-.844.322-1.681.665-2.517 1.008l-.608.25c-.086.035-.13.079-.142.108-.003.007-.011.025.007.067.035.084.146.055.21.029.253-.1.505-.204.757-.308l2.308-.932v1.462c-.002.65-.003 1.299.006 1.947.005.426-.254.58-.45.659-2.22.898-4.439 1.801-6.658 2.703l-4.657 1.888-.056-.4a1.105 1.105 0 0 1-.021-.177v-.83c0-.682 0-1.365-.006-2.048-.004-.397.288-.514.412-.565 1.127-.454 2.252-.912 3.377-1.37l.42-.171c.861-.35 1.722-.7 2.582-1.054.193-.08.171-.138.156-.181-.064-.06-.14-.06-.253-.015l-.19-.26.119.29-6.54 2.656c-.088.037-.252.104-.283.135-.014.034-.014.22-.014.318v17.864l-.704.002c-.295.003-.577.003-.86-.006-.141-.008-.216.021-.27.071v.096Zm19.614-10.201c.018 0 .036 0 .055.002.574.046.757.97.764 1.01.091.473.343 1.068.586 1.643.158.372.32.753.445 1.117 0-1.876.001-3.751-.007-5.627-.39-.147-2.388-1.011-2.774-1.168l-1.231-.496v1.41c0 1.545 0 3.09-.005 4.635.585-.732 1.21-1.736 1.217-1.747.266-.389.533-.78.95-.78m-3.644-4.22v.003-.003m-2.094 14.237H5.723l-.024-4.382c.001-1.958.001-3.916-.004-5.873 0-.235.049-.526.442-.686 2.759-1.114 5.514-2.234 8.269-3.353l2.506-1.018c.042-.018.087-.031.141-.047l.467-.14.004 15.5Zm-11.172-.629h10.543l-.004-13.996-2.248.914c-2.756 1.12-5.511 2.24-8.27 3.354-.043.013-.05.032-.049.1.005 1.958.005 3.916.005 5.875v1.893l.023 1.86ZM29.61 16.445l-4.607-1.873c-2.264-.92-4.528-1.839-6.795-2.753-.307-.125-.447-.337-.44-.667.008-.452.006-.905.005-1.374l-.001-1.002.523.175c.07.023.132.043.19.066l.714.29c3.337 1.357 6.674 2.713 10.007 4.075.186.076.389.298.394.525.013.515.012 1.031.01 1.57v.968Zm-11.166-5.21c2.266.915 4.531 1.835 6.796 2.755l3.741 1.52v-.035c.002-.512.003-1.002-.008-1.492-3.347-1.384-6.679-2.739-10.01-4.093l-.562-.227.001.113c.001.474.003.931-.006 1.388l-.07.363.118-.292ZM5.767 16.407l-.052-.483a1.487 1.487 0 0 1-.014-.183v-.612c0-.381 0-.763-.005-1.145-.004-.3.125-.497.395-.608 2.573-1.041 5.144-2.086 7.714-3.13l3.06-1.243a1.42 1.42 0 0 1 .176-.056l.495-.148.001.905c.001.548.003 1.083-.012 1.617-.009.302-.367.466-.438.496-.945.39-1.892.774-2.84 1.158l-8.48 3.432Zm11.14-6.742-2.864 1.163c-2.572 1.044-5.142 2.09-7.715 3.131.003.401.002.786.002 1.171v.383l7.681-3.121c.946-.384 1.891-.768 2.835-1.156a.468.468 0 0 0 .052-.029c.012-.495.011-.993.01-1.502v-.04ZM29.61 13.3l-5.81-2.356c-1.861-.758-3.724-1.516-5.589-2.27-.307-.124-.449-.333-.444-.659.008-.62.007-1.238.006-1.858v-.795c0-.06.002-.12.007-.19l.028-.553 4.103 1.67c2.4.976 4.799 1.952 7.202 2.92.358.143.508.371.502.763-.01.68-.008 1.36-.006 2.058v1.27ZM18.4 5.54l.001.616c0 .623.002 1.245-.006 1.867-.008.039.005.05.05.068 1.866.754 3.73 1.512 5.592 2.27l4.942 2.006v-.335c-.002-.701-.004-1.387.006-2.07.002-.093-.01-.116-.01-.117 0 0-.018-.02-.097-.053-2.405-.967-4.805-1.944-7.205-2.92L18.4 5.54Z" fill="#fff" fill-rule="evenodd" data-name="Path 4080"/></g><defs><clipPath id="a"><path d="M0 0h32.287v28.32H0V0z" data-name="Rectangle 88"/></clipPath></defs></svg>