<svg xmlns="http://www.w3.org/2000/svg" width="32.154" height="32.186" viewBox="-0.177 0 32.154 32.186"><g data-name="Group 51" transform="translate(-.177)" clip-path="url(&quot;#a&quot;)"><path d="M28.078 32.186H16.989V4.953H7.448A2.529 2.529 0 0 0 4.92 7.478V28.11a2.53 2.53 0 0 0 2.527 2.525h5.873v1.55H7.448A4.08 4.08 0 0 1 3.37 28.11V7.48a4.08 4.08 0 0 1 4.077-4.075h9.541V0h1.55v3.405h9.539a4.08 4.08 0 0 1 4.076 4.075v20.631a4.08 4.08 0 0 1-4.076 4.075m-9.54-1.55h9.54a2.529 2.529 0 0 0 2.526-2.525V7.481a2.529 2.529 0 0 0-2.526-2.528h-9.54v25.683Z" fill="#fff" fill-rule="evenodd" data-name="Path 3995"/><path d="M14.095 32.186H7.812v-8.224a3.142 3.142 0 0 1 6.283 0v8.224Zm-4.733-1.55h3.183v-6.674a1.592 1.592 0 0 0-3.183 0v6.674Z" fill="#fff" fill-rule="evenodd" data-name="Path 3996"/><path d="M27.767 32.186h-6.362v-9.018h6.362v9.018Zm-4.814-1.55h3.263v-5.918h-3.263v5.918Z" fill="#fff" fill-rule="evenodd" data-name="Path 3997"/><path d="M0 17.86 17.37 7.35l.803 1.326L.803 19.187 0 17.86z" fill="#fff" fill-rule="evenodd" data-name="Rectangle 24"/><path d="M20.629 9.713h1.83v1.83h-1.83v-1.83z" fill="#fff" fill-rule="evenodd" data-name="Rectangle 25"/><path d="M23.671 9.713h1.83v1.83h-1.83v-1.83z" fill="#fff" fill-rule="evenodd" data-name="Rectangle 26"/><path d="M26.714 9.713h1.83v1.83h-1.83v-1.83z" fill="#fff" fill-rule="evenodd" data-name="Rectangle 27"/><path d="M20.629 13.109h1.83v1.83h-1.83v-1.83z" fill="#fff" fill-rule="evenodd" data-name="Rectangle 28"/><path d="M23.671 13.109h1.83v1.83h-1.83v-1.83z" fill="#fff" fill-rule="evenodd" data-name="Rectangle 29"/><path d="M26.714 13.109h1.83v1.83h-1.83v-1.83z" fill="#fff" fill-rule="evenodd" data-name="Rectangle 30"/><path d="M20.629 16.504h1.83v1.83h-1.83v-1.83z" fill="#fff" fill-rule="evenodd" data-name="Rectangle 31"/><path d="M23.671 16.504h1.83v1.83h-1.83v-1.83z" fill="#fff" fill-rule="evenodd" data-name="Rectangle 32"/><path d="M26.714 16.504h1.83v1.83h-1.83v-1.83z" fill="#fff" fill-rule="evenodd" data-name="Rectangle 33"/></g><defs><clipPath id="a"><path d="M0 0h32.153v32.186H0V0z" data-name="Rectangle 34"/></clipPath></defs></svg>