<svg xmlns="http://www.w3.org/2000/svg" width="28.278" height="31.494"><g data-name="Group 53" clip-path="url(&quot;#a&quot;)"><path d="M24.273 31.494H4.004A4.009 4.009 0 0 1 0 27.49V7.221a4.009 4.009 0 0 1 4.004-4.005h3.264v1.522H4.004a2.485 2.485 0 0 0-2.482 2.483v20.268a2.485 2.485 0 0 0 2.482 2.483h20.27a2.485 2.485 0 0 0 2.481-2.483V7.221a2.485 2.485 0 0 0-2.482-2.483H11.766V3.216h12.507a4.01 4.01 0 0 1 4.005 4.005v20.268a4.01 4.01 0 0 1-4.005 4.005" fill="#fff" fill-rule="evenodd" data-name="Path 3998"/><path d="M10.792 15.806H9.427V11.81h3.996v1.365h-2.631v2.63Z" fill="#fff" fill-rule="evenodd" data-name="Path 3999"/><path d="M19.01 28.49h-3.996v-1.365h2.631v-2.63h1.365v3.995Z" fill="#fff" fill-rule="evenodd" data-name="Path 4000"/><path d="M6.507 0H8.03v30.733H6.507V0z" fill="#fff" fill-rule="evenodd" data-name="Rectangle 35"/><path d="M7.268 8.7h20.248v1.523H7.268V8.7z" fill="#fff" fill-rule="evenodd" data-name="Rectangle 36"/><path d="M20.426 9.462h1.523v21.27h-1.523V9.463z" fill="#fff" fill-rule="evenodd" data-name="Rectangle 37"/></g><defs><clipPath id="a"><path d="M0 0h28.278v31.495H0V0z" data-name="Rectangle 38"/></clipPath></defs></svg>