<svg xmlns="http://www.w3.org/2000/svg" width="27.734" height="29.629"><g data-name="Group 62" clip-path="url(&quot;#a&quot;)"><path d="m13.867 19.49-.643-1.089c-.556-.94-5.429-9.272-5.429-12.33A6.079 6.079 0 0 1 13.867 0a6.079 6.079 0 0 1 6.072 6.072c0 3.057-4.873 11.389-5.43 12.33l-.642 1.087Zm0-17.996a4.584 4.584 0 0 0-4.579 4.578c0 1.963 2.885 7.464 4.58 10.456 1.694-2.992 4.577-8.493 4.577-10.456a4.583 4.583 0 0 0-4.578-4.578" fill="#fff" fill-rule="evenodd" data-name="Path 4006"/><path d="M13.866 9.146a3.077 3.077 0 0 1-3.074-3.074 3.077 3.077 0 0 1 3.074-3.074 3.077 3.077 0 0 1 3.074 3.074 3.077 3.077 0 0 1-3.074 3.074m0-4.654c-.87 0-1.58.708-1.58 1.58 0 .871.71 1.58 1.58 1.58.872 0 1.58-.709 1.58-1.58 0-.872-.708-1.58-1.58-1.58" fill="#fff" fill-rule="evenodd" data-name="Path 4007"/><path d="M1.494 26.674H0V5.645a3.932 3.932 0 0 1 3.927-3.928h2.42v1.494h-2.42a2.436 2.436 0 0 0-2.433 2.434v21.029Z" fill="#fff" fill-rule="evenodd" data-name="Path 4008"/><path d="m18.716 29.628-8.652-4.002L0 29.338V13.972l9.251-3.398.515 1.402-8.272 3.039v12.18l8.635-3.186 8.574 3.967 7.537-3.628V5.646a2.437 2.437 0 0 0-2.434-2.434h-2.303V1.718h2.303a3.932 3.932 0 0 1 3.928 3.928v19.64l-9.018 4.342Z" fill="#fff" fill-rule="evenodd" data-name="Path 4009"/><path d="m18.713 15.856-2.86-1.35.638-1.352 2.215 1.047 7.957-3.83.648 1.345-8.598 4.14Z" fill="#fff" fill-rule="evenodd" data-name="Path 4010"/><path d="M17.962 15.029h1.494v13.676h-1.494V15.029z" fill="#fff" fill-rule="evenodd" data-name="Rectangle 57"/><path d="M9.35 11.043h1.493v13.773H9.35V11.043z" fill="#fff" fill-rule="evenodd" data-name="Rectangle 58"/></g><defs><clipPath id="a"><path d="M0 0h27.734v29.628H0V0z" data-name="Rectangle 59"/></clipPath></defs></svg>