<svg xmlns="http://www.w3.org/2000/svg" width="27.557" height="28.44"><g data-name="Group 78" clip-path="url(&quot;#a&quot;)"><path d="M23.859 28.44H3.699a3.697 3.697 0 0 1-3.663-4.213L2.404 7.412h22.75l2.367 16.814a3.698 3.698 0 0 1-3.662 4.214M3.735 8.943 1.553 24.44a2.165 2.165 0 0 0 2.145 2.47h20.16a2.167 2.167 0 0 0 2.147-2.47L23.823 8.942H3.735Z" fill="#dbdbdb" fill-rule="evenodd" data-name="Path 4021"/><path d="M19.651 11.798H18.12V5.873a4.346 4.346 0 0 0-4.341-4.341 4.346 4.346 0 0 0-4.341 4.341v5.925H7.906V5.873A5.88 5.88 0 0 1 13.78 0a5.88 5.88 0 0 1 5.872 5.873v5.925Z" fill="#dbdbdb" fill-rule="evenodd" data-name="Path 4022"/><path d="m12.061 23.181-3.1-3.102 1.082-1.082 2.018 2.018 5.454-5.453 1.083 1.083-6.537 6.536Z" fill="#dbdbdb" fill-rule="evenodd" data-name="Path 4023"/></g><defs><clipPath id="a"><path d="M0 0h27.558v28.44H0V0z" data-name="Rectangle 65"/></clipPath></defs></svg>