<svg xmlns="http://www.w3.org/2000/svg" width="52.155" height="52.155" viewBox="331.882 1640.975 52.155 52.155"><g data-name="Group 9026"><path d="M372.037 1692.13h-28.155c-6.075 0-11-4.925-11-11v-28.155c0-6.075 4.925-11 11-11h28.155c6.075 0 11 4.925 11 11v28.155c0 6.075-4.925 11-11 11" fill="#fff" fill-rule="evenodd" data-name="Path 33497"/><path d="M372.037 1693.13h-28.155a11.922 11.922 0 0 1-8.485-3.515 11.92 11.92 0 0 1-3.515-8.485v-28.155c0-3.205 1.248-6.218 3.515-8.485a11.922 11.922 0 0 1 8.485-3.515h28.155c3.205 0 6.218 1.249 8.485 3.515a11.921 11.921 0 0 1 3.515 8.485v28.155a11.92 11.92 0 0 1-3.515 8.485 11.921 11.921 0 0 1-8.485 3.515Zm-28.155-50.155c-5.514 0-10 4.486-10 10v28.155c0 5.514 4.486 10 10 10h28.155c5.514 0 10-4.486 10-10v-28.155c0-5.514-4.486-10-10-10h-28.155Z" fill="#034bf1" fill-rule="evenodd" data-name="Path 33497 - Outline"/><g data-name="Group 8916"><path d="m348.612 1667.369-.829-1.248 10.603-7.035 10.604 7.035-.829 1.248-9.775-6.486-9.774 6.486Z" fill="#144ced" fill-rule="evenodd" data-name="Path 4018"/><path d="M350.602 1667.507h1.498v13.452h-1.498v-13.452z" fill="#144ced" fill-rule="evenodd" data-name="Rectangle 63"/><g data-name="Group 76"><g data-name="Group 75" transform="translate(344.48 1653.895)" clip-path="url(&quot;#a&quot;)"><path d="M23.874 27.813h-3.681V10.757h1.498v15.558h2.183a2.443 2.443 0 0 0 2.44-2.44V3.938a2.443 2.443 0 0 0-2.44-2.44H3.939a2.443 2.443 0 0 0-2.441 2.44v19.935a2.443 2.443 0 0 0 2.44 2.44h7.609v1.5H3.939A3.944 3.944 0 0 1 0 23.873V3.94A3.943 3.943 0 0 1 3.939 0h19.935a3.943 3.943 0 0 1 3.938 3.94v19.935a3.944 3.944 0 0 1-3.938 3.94" fill="#144ced" fill-rule="evenodd" data-name="Path 4019"/><path d="M17.015 27.813h-6.217v-7.407a3.112 3.112 0 0 1 3.108-3.109 3.112 3.112 0 0 1 3.109 3.11v7.406Zm-4.72-1.498h3.222v-5.909c0-.888-.723-1.61-1.611-1.61s-1.61.722-1.61 1.61v5.909Z" fill="#144ced" fill-rule="evenodd" data-name="Path 4020"/></g></g></g></g><defs><clipPath id="a"><path d="M0 0h27.812v27.813H0V0z" data-name="Rectangle 64"/></clipPath></defs></svg>