<svg xmlns="http://www.w3.org/2000/svg" width="28.028" height="32"><g data-name="Group 8896" clip-path="url(&quot;#a&quot;)"><path d="M1.531 27.973V7.586A2.5 2.5 0 0 1 4.028 5.09h6.628c-.01-.517.017-1.028.074-1.531H4.028A4.032 4.032 0 0 0 0 7.586v20.387A4.032 4.032 0 0 0 4.028 32h8.212V30.47H4.028a2.5 2.5 0 0 1-2.497-2.496" fill="#fff" fill-rule="evenodd" data-name="Path 33489"/><path d="M10.77 32c-.625-.317-.816-.835-.815-1.518.01-10.617.007-18.344.008-28.962 0-1.163.359-1.519 1.524-1.519 2.337 0 4.674-.002 7.012 0 .94.002 1.253.317 1.255 1.272.002 2.571 0 5.142 0 7.713v.63h2.639c0-.718-.004-1.446 0-2.173.003-.425.222-.704.636-.777.37-.063.657.107.793.462.058.15.067.325.069.489.007.65.002 1.3.002 2.034h.692c.818 0 1.636-.002 2.453 0 .642.003.976.257.983.742.008.49-.325.758-.958.76-1.033.003-2.065 0-3.133 0v3.857c.93 0 1.844-.002 2.758 0 1.04.003 1.338.301 1.339 1.343v2.77c0 .1.003.201-.002.3-.023.487-.29.794-.705.817-.424.023-.778-.302-.787-.793-.02-1.069-.008.752-.008-.316v-2.62h-.622c-2.187 0-4.375.002-6.562 0-.887-.001-1.087-.203-1.088-1.094V9.123c-.778 0-1.493.014-2.208-.005-.623-.016-1.028-.555-.74-1.035.134-.223.483-.416.75-.44.696-.06 1.399-.02 2.148-.02V4.89h-1.618c-.283 0-.568.012-.85-.008-.492-.036-.769-.319-.766-.752.003-.434.281-.718.777-.733.685-.02 1.37-.006 2.054-.01.13 0 .259-.02.42-.033V1.531h-6.715v28.942h15.02v-.553c0-2.186-.001-4.373.002-6.56 0-.198.004-.405.058-.593.105-.369.381-.54.76-.512.379.03.66.248.66.627.015 2.704.015 5.408-.006 8.112-.003.497-.386.785-.797 1.006H10.77Zm11.597-20.812h-2.582v3.792h2.582v-3.792Z" fill="#fff" fill-rule="evenodd" data-name="Path 33490"/><path d="M22.625 31.77h-6.287v-8.657h6.287v8.657Zm-4.757-1.276h3.225v-5.85h-3.225v5.85Z" fill="#fff" fill-rule="evenodd" data-name="Path 33491"/><path d="M15.57 18.695h1.808v1.809H15.57v-1.81z" fill="#fff" fill-rule="evenodd" data-name="Rectangle 5826"/><path d="M18.576 18.695h1.809v1.809h-1.81v-1.81z" fill="#fff" fill-rule="evenodd" data-name="Rectangle 5827"/><path d="M21.582 18.695h1.81v1.809h-1.81v-1.81z" fill="#fff" fill-rule="evenodd" data-name="Rectangle 5828"/></g><defs><clipPath id="a"><path d="M0 0h28.028v32H0V0z" data-name="Rectangle 5829"/></clipPath></defs></svg>