<svg xmlns="http://www.w3.org/2000/svg" width="30.837" height="28.782" viewBox="270.815 1679.895 30.837 28.782"><g data-name="Group 135"><g data-name="Group 107" transform="translate(270.815 1679.895)" clip-path="url(&quot;#a&quot;)"><path d="M24.706 28.782H4.076A4.08 4.08 0 0 1 0 24.706V4.076A4.08 4.08 0 0 1 4.076 0h20.63a4.08 4.08 0 0 1 4.077 4.075v11.373h-1.55V4.075a2.528 2.528 0 0 0-2.527-2.524H4.076A2.528 2.528 0 0 0 1.55 4.075v20.631a2.528 2.528 0 0 0 2.526 2.525h20.63v1.551Z" fill="#dbdbdb" fill-rule="evenodd" data-name="Path 4042"/><path d="M15.662 21.101a7.827 7.827 0 0 1-5.069-1.854c-3.308-2.799-3.722-7.769-.924-11.077 2.8-3.308 7.767-3.72 11.076-.924a7.807 7.807 0 0 1 2.755 5.347 7.803 7.803 0 0 1-1.831 5.729 7.843 7.843 0 0 1-6.007 2.78m.011-13.88a6.015 6.015 0 0 0-4.605 2.131 6.035 6.035 0 0 0 .709 8.495 6.034 6.034 0 0 0 8.493-.71 5.99 5.99 0 0 0 1.405-4.393 5.982 5.982 0 0 0-2.114-4.099 6 6 0 0 0-3.888-1.423" fill="#dbdbdb" fill-rule="evenodd" data-name="Path 4043"/><path d="M28.13 26.495c-.638 0-1.249-.224-1.741-.64l-7.209-6.098 1.183-1.4 7.21 6.099c.177.15.401.228.634.204a.872.872 0 0 0 .49-1.533l-5.533-4.68 1.184-1.4 5.532 4.681a2.706 2.706 0 0 1 .319 3.81 2.686 2.686 0 0 1-2.068.957" fill="#dbdbdb" fill-rule="evenodd" data-name="Path 4044"/></g></g><defs><clipPath id="a"><path d="M0 0h30.836v28.782H0V0z" data-name="Rectangle 73"/></clipPath></defs></svg>