<svg xmlns="http://www.w3.org/2000/svg" width="28.321" height="28.321"><g data-name="Group 55" clip-path="url(&quot;#a&quot;)"><path d="M24.31 28.32h-3.69V7.635H7.486v19.162h8.14v-3.968a1.616 1.616 0 0 0-3.229 0v2.271h-1.525v-2.271a3.143 3.143 0 0 1 3.14-3.139 3.142 3.142 0 0 1 3.14 3.139v5.493H4.011A4.016 4.016 0 0 1 0 24.31V4.01C0 1.798 1.8 0 4.011 0h20.3a4.014 4.014 0 0 1 4.01 4.01v20.3a4.015 4.015 0 0 1-4.01 4.01m-2.166-1.525h2.166a2.49 2.49 0 0 0 2.485-2.486V4.01a2.488 2.488 0 0 0-2.485-2.485H4.01A2.488 2.488 0 0 0 1.525 4.01v20.3a2.49 2.49 0 0 0 2.486 2.486h1.95V6.109h16.184v20.687Z" fill="#fff" fill-rule="evenodd" data-name="Path 4001"/><path d="M9.49 9.457h1.845v1.845H9.49V9.457z" fill="#fff" fill-rule="evenodd" data-name="Rectangle 39"/><path d="M13.238 9.457h1.845v1.845h-1.845V9.457z" fill="#fff" fill-rule="evenodd" data-name="Rectangle 40"/><path d="M16.985 9.457h1.845v1.845h-1.845V9.457z" fill="#fff" fill-rule="evenodd" data-name="Rectangle 41"/><path d="M9.49 12.932h1.845v1.845H9.49v-1.845z" fill="#fff" fill-rule="evenodd" data-name="Rectangle 42"/><path d="M13.238 12.932h1.845v1.845h-1.845v-1.845z" fill="#fff" fill-rule="evenodd" data-name="Rectangle 43"/><path d="M16.985 12.932h1.845v1.845h-1.845v-1.845z" fill="#fff" fill-rule="evenodd" data-name="Rectangle 44"/><path d="M9.49 16.406h1.845v1.845H9.49v-1.845z" fill="#fff" fill-rule="evenodd" data-name="Rectangle 45"/><path d="M13.238 16.406h1.845v1.845h-1.845v-1.845z" fill="#fff" fill-rule="evenodd" data-name="Rectangle 46"/><path d="M16.985 16.406h1.845v1.845h-1.845v-1.845z" fill="#fff" fill-rule="evenodd" data-name="Rectangle 47"/></g><defs><clipPath id="a"><path d="M0 0h28.32v28.32H0V0z" data-name="Rectangle 48"/></clipPath></defs></svg>